<svg width="160" height="69" viewBox="0 0 160 69" fill="none" xmlns="http://www.w3.org/2000/svg">
<path d="M8.33331 18C8.33331 17.0795 9.07948 16.3333 9.99998 16.3333H23.3333L31.6666 24.6667V48C31.6666 48.9205 30.9205 49.6667 30 49.6667H9.99998C9.07948 49.6667 8.33331 48.9205 8.33331 48V18Z" fill="#34D399"/>
<path d="M15 33L18.3333 36.3333L25 28" stroke="white" stroke-width="2.5" stroke-linecap="round" stroke-linejoin="round"/>
<path d="M23.3333 16.3333V23C23.3333 23.9205 24.0795 24.6667 25 24.6667H31.6666" fill="#10B981"/>
<path d="M62.6747 31.9091C60.919 31.9091 59.3892 31.4702 58.0852 30.5923C56.7898 29.7145 55.7841 28.5128 55.0682 26.9872C54.3523 25.4616 53.9943 23.723 53.9943 21.7713C53.9943 19.8026 54.3565 18.0511 55.081 16.517C55.8139 14.983 56.8281 13.7812 58.1236 12.9119C59.419 12.0341 60.9233 11.5952 62.6364 11.5952C63.9489 11.5952 65.1378 11.8509 66.2031 12.3622C67.2685 12.8651 68.1463 13.5767 68.8366 14.4972C69.5355 15.4091 69.9744 16.4744 70.1534 17.6932H67.8523C67.6136 16.5852 67.0384 15.6392 66.1264 14.8551C65.223 14.0625 64.0724 13.6662 62.6747 13.6662C61.4219 13.6662 60.3139 14.0071 59.3509 14.6889C58.3878 15.3622 57.6335 16.304 57.0881 17.5142C56.5511 18.7159 56.2827 20.1094 56.2827 21.6946C56.2827 23.2884 56.5469 24.6989 57.0753 25.9261C57.6037 27.1449 58.3452 28.0994 59.2997 28.7898C60.2628 29.4801 61.3878 29.8253 62.6747 29.8253C63.544 29.8253 64.3366 29.6634 65.0526 29.3395C65.777 29.0071 66.3821 28.5384 66.8679 27.9332C67.3622 27.3281 67.6946 26.608 67.8651 25.7727H70.1662C69.9957 26.9574 69.5739 28.0142 68.9006 28.9432C68.2358 29.8636 67.3707 30.5881 66.3054 31.1165C65.2486 31.6449 64.0384 31.9091 62.6747 31.9091ZM78.588 5.31818V31.5H76.3125V5.31818H78.588ZM93.8174 31.9091C91.985 31.9091 90.3998 31.483 89.0617 30.6307C87.7236 29.7699 86.6881 28.581 85.9552 27.0639C85.2308 25.5384 84.8685 23.7827 84.8685 21.7969C84.8685 19.8196 85.2308 18.0639 85.9552 16.5298C86.6881 14.9872 87.6981 13.7812 88.985 12.9119C90.2805 12.0341 91.7762 11.5952 93.4722 11.5952C94.5376 11.5952 95.5646 11.7912 96.5532 12.1832C97.5418 12.5668 98.4282 13.1591 99.2123 13.9602C100.005 14.7528 100.631 15.7543 101.092 16.9645C101.552 18.1662 101.782 19.5895 101.782 21.2344V22.3594H86.441V20.3523H99.4552C99.4552 19.0909 99.1995 17.9574 98.6881 16.9517C98.1853 15.9375 97.4822 15.1364 96.5788 14.5483C95.6839 13.9602 94.6484 13.6662 93.4722 13.6662C92.2279 13.6662 91.1327 13.9986 90.1867 14.6634C89.2407 15.3281 88.4992 16.206 87.9623 17.2969C87.4339 18.3878 87.1654 19.581 87.1569 20.8764V22.0781C87.1569 23.6378 87.4254 25.0014 87.9623 26.169C88.5077 27.3281 89.279 28.2273 90.2762 28.8665C91.2734 29.5057 92.4538 29.8253 93.8174 29.8253C94.7464 29.8253 95.5603 29.6804 96.2592 29.3906C96.9665 29.1009 97.5589 28.7131 98.0362 28.2273C98.5219 27.733 98.8884 27.1918 99.1356 26.6037L101.296 27.3068C100.998 28.1335 100.508 28.8963 99.8259 29.5952C99.1526 30.294 98.3089 30.8565 97.2947 31.2827C96.289 31.7003 95.1299 31.9091 93.8174 31.9091ZM113.55 31.9474C112.365 31.9474 111.283 31.7173 110.303 31.2571C109.323 30.7884 108.543 30.1151 107.963 29.2372C107.384 28.3509 107.094 27.277 107.094 26.0156C107.094 25.044 107.277 24.2259 107.644 23.5611C108.01 22.8963 108.53 22.3509 109.203 21.9247C109.877 21.4986 110.674 21.1619 111.594 20.9148C112.514 20.6676 113.529 20.4759 114.637 20.3395C115.736 20.2031 116.665 20.0838 117.424 19.9815C118.191 19.8793 118.774 19.7173 119.175 19.4957C119.576 19.2741 119.776 18.9162 119.776 18.4219V17.9616C119.776 16.6236 119.375 15.571 118.574 14.804C117.781 14.0284 116.639 13.6406 115.148 13.6406C113.733 13.6406 112.578 13.9517 111.683 14.5739C110.797 15.196 110.175 15.929 109.817 16.7727L107.656 15.9929C108.1 14.919 108.713 14.0625 109.497 13.4233C110.281 12.7756 111.159 12.3111 112.131 12.0298C113.103 11.7401 114.087 11.5952 115.084 11.5952C115.834 11.5952 116.614 11.6932 117.424 11.8892C118.242 12.0852 119 12.4261 119.699 12.9119C120.398 13.3892 120.965 14.0582 121.399 14.919C121.834 15.7713 122.051 16.8537 122.051 18.1662V31.5H119.776V28.3935H119.635C119.362 28.973 118.958 29.5355 118.421 30.081C117.884 30.6264 117.21 31.0739 116.401 31.4233C115.591 31.7727 114.641 31.9474 113.55 31.9474ZM113.857 29.8636C115.067 29.8636 116.115 29.5952 117.002 29.0582C117.888 28.5213 118.57 27.8097 119.047 26.9233C119.533 26.0284 119.776 25.044 119.776 23.9702V21.1321C119.605 21.294 119.32 21.4389 118.919 21.5668C118.527 21.6946 118.071 21.8097 117.551 21.9119C117.04 22.0057 116.529 22.0866 116.017 22.1548C115.506 22.223 115.046 22.2827 114.637 22.3338C113.529 22.4702 112.583 22.6832 111.799 22.973C111.014 23.2628 110.414 23.6634 109.996 24.1747C109.578 24.6776 109.37 25.3253 109.37 26.1179C109.37 27.3111 109.796 28.2358 110.648 28.892C111.5 29.5398 112.57 29.8636 113.857 29.8636ZM129.374 31.5V11.8636H131.585V14.8807H131.752C132.144 13.892 132.825 13.0952 133.797 12.4901C134.777 11.8764 135.885 11.5696 137.121 11.5696C137.308 11.5696 137.517 11.5739 137.747 11.5824C137.977 11.5909 138.169 11.5994 138.323 11.608V13.9219C138.22 13.9048 138.041 13.8793 137.786 13.8452C137.53 13.8111 137.253 13.794 136.955 13.794C135.932 13.794 135.02 14.0114 134.219 14.446C133.426 14.8722 132.8 15.4645 132.34 16.223C131.879 16.9815 131.649 17.8466 131.649 18.8182V31.5H129.374Z" fill="#1F2937"/>
<path d="M54.5696 68.8636V41.8636H58.3026V45.0469H58.6222C58.8438 44.6378 59.1634 44.1648 59.581 43.6278C59.9986 43.0909 60.5781 42.6222 61.3196 42.2216C62.0611 41.8125 63.0412 41.608 64.2599 41.608C65.8452 41.608 67.2599 42.0085 68.5043 42.8097C69.7486 43.6108 70.7244 44.7656 71.4318 46.2741C72.1477 47.7827 72.5057 49.598 72.5057 51.7202C72.5057 53.8423 72.152 55.6619 71.4446 57.179C70.7372 58.6875 69.7656 59.8509 68.5298 60.669C67.294 61.4787 65.8835 61.8835 64.2983 61.8835C63.1051 61.8835 62.1293 61.6832 61.3707 61.2827C60.6207 60.8821 60.0327 60.4134 59.6065 59.8764C59.1804 59.3395 58.8523 58.8622 58.6222 58.4446H58.392V68.8636H54.5696ZM58.3153 51.6818C58.3153 53.0625 58.5156 54.2727 58.9162 55.3125C59.3168 56.3523 59.8963 57.1662 60.6548 57.7543C61.4134 58.3338 62.3423 58.6236 63.4418 58.6236C64.5838 58.6236 65.5384 58.321 66.3054 57.7159C67.0724 57.1023 67.652 56.2713 68.044 55.223C68.4446 54.1747 68.6449 52.9943 68.6449 51.6818C68.6449 50.3864 68.4489 49.223 68.0568 48.1918C67.6733 47.1605 67.0938 46.3466 66.3182 45.75C65.5511 45.1534 64.5923 44.8551 63.4418 44.8551C62.3338 44.8551 61.3963 45.1406 60.6293 45.7116C59.8707 46.2827 59.2955 47.0795 58.9034 48.1023C58.5114 49.125 58.3153 50.3182 58.3153 51.6818ZM86.3288 61.8963C84.4879 61.8963 82.8814 61.4744 81.5092 60.6307C80.137 59.7869 79.0717 58.6065 78.3132 57.0895C77.5547 55.5724 77.1754 53.7997 77.1754 51.7713C77.1754 49.7344 77.5547 47.9531 78.3132 46.4276C79.0717 44.902 80.137 43.7173 81.5092 42.8736C82.8814 42.0298 84.4879 41.608 86.3288 41.608C88.1697 41.608 89.7762 42.0298 91.1484 42.8736C92.5206 43.7173 93.5859 44.902 94.3444 46.4276C95.1029 47.9531 95.4822 49.7344 95.4822 51.7713C95.4822 53.7997 95.1029 55.5724 94.3444 57.0895C93.5859 58.6065 92.5206 59.7869 91.1484 60.6307C89.7762 61.4744 88.1697 61.8963 86.3288 61.8963ZM86.3416 58.6875C87.5348 58.6875 88.5234 58.3722 89.3075 57.7415C90.0916 57.1108 90.6711 56.2713 91.0461 55.223C91.4297 54.1747 91.6214 53.0199 91.6214 51.7585C91.6214 50.5057 91.4297 49.3551 91.0461 48.3068C90.6711 47.25 90.0916 46.402 89.3075 45.7628C88.5234 45.1236 87.5348 44.804 86.3416 44.804C85.1399 44.804 84.1427 45.1236 83.3501 45.7628C82.566 46.402 81.9822 47.25 81.5987 48.3068C81.2237 49.3551 81.0362 50.5057 81.0362 51.7585C81.0362 53.0199 81.2237 54.1747 81.5987 55.223C81.9822 56.2713 82.566 57.1108 83.3501 57.7415C84.1427 58.3722 85.1399 58.6875 86.3416 58.6875ZM104.84 35.3182V61.5H101.018V35.3182H104.84ZM111.252 61.5V41.8636H115.074V61.5H111.252ZM113.182 38.8338C112.518 38.8338 111.947 38.6122 111.469 38.169C111.001 37.7173 110.766 37.1804 110.766 36.5582C110.766 35.9276 111.001 35.3906 111.469 34.9474C111.947 34.4957 112.518 34.2699 113.182 34.2699C113.847 34.2699 114.414 34.4957 114.883 34.9474C115.36 35.3906 115.599 35.9276 115.599 36.5582C115.599 37.1804 115.36 37.7173 114.883 38.169C114.414 38.6122 113.847 38.8338 113.182 38.8338ZM129.757 61.8963C127.857 61.8963 126.22 61.4659 124.848 60.6051C123.485 59.7358 122.436 58.5384 121.703 57.0128C120.97 55.4872 120.604 53.7401 120.604 51.7713C120.604 49.777 120.979 48.017 121.729 46.4915C122.479 44.9574 123.536 43.7599 124.899 42.8991C126.263 42.0384 127.87 41.608 129.719 41.608C131.21 41.608 132.54 41.8849 133.708 42.4389C134.875 42.9844 135.817 43.7514 136.533 44.7401C137.257 45.7287 137.688 46.8835 137.824 48.2045H134.104C133.899 47.2841 133.431 46.4915 132.698 45.8267C131.973 45.1619 131.002 44.8295 129.783 44.8295C128.718 44.8295 127.784 45.1108 126.983 45.6733C126.191 46.2273 125.573 47.0199 125.129 48.0511C124.686 49.0739 124.465 50.2841 124.465 51.6818C124.465 53.1136 124.682 54.3494 125.117 55.3892C125.551 56.429 126.165 57.2344 126.958 57.8054C127.759 58.3764 128.7 58.6619 129.783 58.6619C130.507 58.6619 131.164 58.5298 131.752 58.2656C132.348 57.9929 132.847 57.6051 133.247 57.1023C133.656 56.5994 133.942 55.9943 134.104 55.2869H137.824C137.688 56.5568 137.274 57.6903 136.584 58.6875C135.894 59.6847 134.969 60.4687 133.81 61.0398C132.659 61.6108 131.308 61.8963 129.757 61.8963ZM145.597 68.8636C145.026 68.8636 144.506 68.8168 144.037 68.723C143.569 68.6378 143.219 68.544 142.989 68.4418L143.91 65.3097C144.608 65.4972 145.231 65.5781 145.776 65.5526C146.322 65.527 146.803 65.3224 147.221 64.9389C147.647 64.5554 148.022 63.929 148.346 63.0597L148.819 61.7557L141.634 41.8636H145.725L150.698 57.1023H150.903L155.876 41.8636H159.979L151.887 64.1207C151.512 65.1435 151.035 66.0085 150.455 66.7159C149.876 67.4318 149.185 67.9688 148.384 68.3267C147.583 68.6847 146.654 68.8636 145.597 68.8636Z" fill="#34D399"/>
</svg>
